<svg width="394" height="85" viewBox="0 0 394 85" fill="none" xmlns="http://www.w3.org/2000/svg">
<rect width="394" height="85" rx="14" fill="#232323"/>
<path d="M101.094 39H98.832L90.2422 25.8516V39H87.9805V21.9375H90.2422L98.8555 35.1445V21.9375H101.094V39ZM112.578 39C112.453 38.75 112.352 38.3047 112.273 37.6641C111.266 38.7109 110.062 39.2344 108.664 39.2344C107.414 39.2344 106.387 38.8828 105.582 38.1797C104.785 37.4688 104.387 36.5703 104.387 35.4844C104.387 34.1641 104.887 33.1406 105.887 32.4141C106.895 31.6797 108.309 31.3125 110.129 31.3125H112.238V30.3164C112.238 29.5586 112.012 28.957 111.559 28.5117C111.105 28.0586 110.438 27.832 109.555 27.832C108.781 27.832 108.133 28.0273 107.609 28.418C107.086 28.8086 106.824 29.2812 106.824 29.8359H104.645C104.645 29.2031 104.867 28.5938 105.312 28.0078C105.766 27.4141 106.375 26.9453 107.141 26.6016C107.914 26.2578 108.762 26.0859 109.684 26.0859C111.145 26.0859 112.289 26.4531 113.117 27.1875C113.945 27.9141 114.375 28.918 114.406 30.1992V36.0352C114.406 37.1992 114.555 38.125 114.852 38.8125V39H112.578ZM108.98 37.3477C109.66 37.3477 110.305 37.1719 110.914 36.8203C111.523 36.4688 111.965 36.0117 112.238 35.4492V32.8477H110.539C107.883 32.8477 106.555 33.625 106.555 35.1797C106.555 35.8594 106.781 36.3906 107.234 36.7734C107.688 37.1562 108.27 37.3477 108.98 37.3477ZM119.844 26.3203L119.902 27.7266C120.832 26.6328 122.086 26.0859 123.664 26.0859C125.438 26.0859 126.645 26.7656 127.285 28.125C127.707 27.5156 128.254 27.0234 128.926 26.6484C129.605 26.2734 130.406 26.0859 131.328 26.0859C134.109 26.0859 135.523 27.5586 135.57 30.5039V39H133.402V30.6328C133.402 29.7266 133.195 29.0508 132.781 28.6055C132.367 28.1523 131.672 27.9258 130.695 27.9258C129.891 27.9258 129.223 28.168 128.691 28.6523C128.16 29.1289 127.852 29.7734 127.766 30.5859V39H125.586V30.6914C125.586 28.8477 124.684 27.9258 122.879 27.9258C121.457 27.9258 120.484 28.5312 119.961 29.7422V39H117.793V26.3203H119.844ZM144.113 39.2344C142.395 39.2344 140.996 38.6719 139.918 37.5469C138.84 36.4141 138.301 34.9023 138.301 33.0117V32.6133C138.301 31.3555 138.539 30.2344 139.016 29.25C139.5 28.2578 140.172 27.4844 141.031 26.9297C141.898 26.3672 142.836 26.0859 143.844 26.0859C145.492 26.0859 146.773 26.6289 147.688 27.7148C148.602 28.8008 149.059 30.3555 149.059 32.3789V33.2812H140.469C140.5 34.5312 140.863 35.543 141.559 36.3164C142.262 37.082 143.152 37.4648 144.23 37.4648C144.996 37.4648 145.645 37.3086 146.176 36.9961C146.707 36.6836 147.172 36.2695 147.57 35.7539L148.895 36.7852C147.832 38.418 146.238 39.2344 144.113 39.2344ZM143.844 27.8672C142.969 27.8672 142.234 28.1875 141.641 28.8281C141.047 29.4609 140.68 30.3516 140.539 31.5H146.891V31.3359C146.828 30.2344 146.531 29.3828 146 28.7812C145.469 28.1719 144.75 27.8672 143.844 27.8672Z" fill="white"/>
<rect x="9" y="10" width="65" height="66" rx="15" fill="#C4C4C4"/>
<path d="M90.8281 63.7734H96.2188V65H89.3203V53.625H90.8281V63.7734ZM102.922 65C102.839 64.8333 102.771 64.5365 102.719 64.1094C102.047 64.8073 101.245 65.1562 100.312 65.1562C99.4792 65.1562 98.7943 64.9219 98.2578 64.4531C97.7266 63.9792 97.4609 63.3802 97.4609 62.6562C97.4609 61.776 97.7943 61.0938 98.4609 60.6094C99.1328 60.1198 100.076 59.875 101.289 59.875H102.695V59.2109C102.695 58.7057 102.544 58.3047 102.242 58.0078C101.94 57.7057 101.495 57.5547 100.906 57.5547C100.391 57.5547 99.9583 57.6849 99.6094 57.9453C99.2604 58.2057 99.0859 58.5208 99.0859 58.8906H97.6328C97.6328 58.4688 97.7812 58.0625 98.0781 57.6719C98.3802 57.276 98.7865 56.9635 99.2969 56.7344C99.8125 56.5052 100.378 56.3906 100.992 56.3906C101.966 56.3906 102.729 56.6354 103.281 57.125C103.833 57.6094 104.12 58.2786 104.141 59.1328V63.0234C104.141 63.7995 104.24 64.4167 104.438 64.875V65H102.922ZM100.523 63.8984C100.977 63.8984 101.406 63.7812 101.812 63.5469C102.219 63.3125 102.513 63.0078 102.695 62.6328V60.8984H101.562C99.7917 60.8984 98.9062 61.4167 98.9062 62.4531C98.9062 62.9062 99.0573 63.2604 99.3594 63.5156C99.6615 63.7708 100.049 63.8984 100.523 63.8984ZM111.328 62.7578C111.328 62.3672 111.18 62.0651 110.883 61.8516C110.591 61.6328 110.078 61.4453 109.344 61.2891C108.615 61.1328 108.034 60.9453 107.602 60.7266C107.174 60.5078 106.857 60.2474 106.648 59.9453C106.445 59.6432 106.344 59.2839 106.344 58.8672C106.344 58.1745 106.635 57.5885 107.219 57.1094C107.807 56.6302 108.557 56.3906 109.469 56.3906C110.427 56.3906 111.203 56.638 111.797 57.1328C112.396 57.6276 112.695 58.2604 112.695 59.0312H111.242C111.242 58.6354 111.073 58.2943 110.734 58.0078C110.401 57.7214 109.979 57.5781 109.469 57.5781C108.943 57.5781 108.531 57.6927 108.234 57.9219C107.938 58.151 107.789 58.4505 107.789 58.8203C107.789 59.1693 107.927 59.4323 108.203 59.6094C108.479 59.7865 108.977 59.9557 109.695 60.1172C110.419 60.2786 111.005 60.4714 111.453 60.6953C111.901 60.9193 112.232 61.1901 112.445 61.5078C112.664 61.8203 112.773 62.2031 112.773 62.6562C112.773 63.4115 112.471 64.0182 111.867 64.4766C111.263 64.9297 110.479 65.1562 109.516 65.1562C108.839 65.1562 108.24 65.0365 107.719 64.7969C107.198 64.5573 106.789 64.224 106.492 63.7969C106.201 63.3646 106.055 62.8984 106.055 62.3984H107.5C107.526 62.8828 107.719 63.2682 108.078 63.5547C108.443 63.8359 108.922 63.9766 109.516 63.9766C110.062 63.9766 110.5 63.8672 110.828 63.6484C111.161 63.4245 111.328 63.1276 111.328 62.7578ZM116.617 54.5V56.5469H118.195V57.6641H116.617V62.9062C116.617 63.2448 116.688 63.5 116.828 63.6719C116.969 63.8385 117.208 63.9219 117.547 63.9219C117.714 63.9219 117.943 63.8906 118.234 63.8281V65C117.854 65.1042 117.484 65.1562 117.125 65.1562C116.479 65.1562 115.992 64.9609 115.664 64.5703C115.336 64.1797 115.172 63.625 115.172 62.9062V57.6641H113.633V56.5469H115.172V54.5H116.617ZM125.82 54.5V56.5469H127.398V57.6641H125.82V62.9062C125.82 63.2448 125.891 63.5 126.031 63.6719C126.172 63.8385 126.411 63.9219 126.75 63.9219C126.917 63.9219 127.146 63.8906 127.438 63.8281V65C127.057 65.1042 126.688 65.1562 126.328 65.1562C125.682 65.1562 125.195 64.9609 124.867 64.5703C124.539 64.1797 124.375 63.625 124.375 62.9062V57.6641H122.836V56.5469H124.375V54.5H125.82ZM132.602 65.1562C131.456 65.1562 130.523 64.7812 129.805 64.0312C129.086 63.276 128.727 62.2682 128.727 61.0078V60.7422C128.727 59.9036 128.885 59.1562 129.203 58.5C129.526 57.8385 129.974 57.3229 130.547 56.9531C131.125 56.5781 131.75 56.3906 132.422 56.3906C133.521 56.3906 134.375 56.7526 134.984 57.4766C135.594 58.2005 135.898 59.237 135.898 60.5859V61.1875H130.172C130.193 62.0208 130.435 62.6953 130.898 63.2109C131.367 63.7214 131.961 63.9766 132.68 63.9766C133.19 63.9766 133.622 63.8724 133.977 63.6641C134.331 63.4557 134.641 63.1797 134.906 62.8359L135.789 63.5234C135.081 64.612 134.018 65.1562 132.602 65.1562ZM132.422 57.5781C131.839 57.5781 131.349 57.7917 130.953 58.2188C130.557 58.6406 130.312 59.2344 130.219 60H134.453V59.8906C134.411 59.1562 134.214 58.5885 133.859 58.1875C133.505 57.7812 133.026 57.5781 132.422 57.5781ZM140.414 59.6328L142.289 56.5469H143.977L141.211 60.7266L144.062 65H142.391L140.438 61.8359L138.484 65H136.805L139.656 60.7266L136.891 56.5469H138.562L140.414 59.6328ZM147.477 54.5V56.5469H149.055V57.6641H147.477V62.9062C147.477 63.2448 147.547 63.5 147.688 63.6719C147.828 63.8385 148.068 63.9219 148.406 63.9219C148.573 63.9219 148.802 63.8906 149.094 63.8281V65C148.714 65.1042 148.344 65.1562 147.984 65.1562C147.339 65.1562 146.852 64.9609 146.523 64.5703C146.195 64.1797 146.031 63.625 146.031 62.9062V57.6641H144.492V56.5469H146.031V54.5H147.477ZM156.078 56.5469L156.117 57.4844C156.737 56.7552 157.573 56.3906 158.625 56.3906C159.807 56.3906 160.612 56.8438 161.039 57.75C161.32 57.3438 161.685 57.0156 162.133 56.7656C162.586 56.5156 163.12 56.3906 163.734 56.3906C165.589 56.3906 166.531 57.3724 166.562 59.3359V65H165.117V59.4219C165.117 58.8177 164.979 58.3672 164.703 58.0703C164.427 57.7682 163.964 57.6172 163.312 57.6172C162.776 57.6172 162.331 57.7786 161.977 58.1016C161.622 58.4193 161.417 58.849 161.359 59.3906V65H159.906V59.4609C159.906 58.2318 159.305 57.6172 158.102 57.6172C157.154 57.6172 156.505 58.0208 156.156 58.8281V65H154.711V56.5469H156.078ZM172.258 65.1562C171.112 65.1562 170.18 64.7812 169.461 64.0312C168.742 63.276 168.383 62.2682 168.383 61.0078V60.7422C168.383 59.9036 168.542 59.1562 168.859 58.5C169.182 57.8385 169.63 57.3229 170.203 56.9531C170.781 56.5781 171.406 56.3906 172.078 56.3906C173.177 56.3906 174.031 56.7526 174.641 57.4766C175.25 58.2005 175.555 59.237 175.555 60.5859V61.1875H169.828C169.849 62.0208 170.091 62.6953 170.555 63.2109C171.023 63.7214 171.617 63.9766 172.336 63.9766C172.846 63.9766 173.279 63.8724 173.633 63.6641C173.987 63.4557 174.297 63.1797 174.562 62.8359L175.445 63.5234C174.737 64.612 173.674 65.1562 172.258 65.1562ZM172.078 57.5781C171.495 57.5781 171.005 57.7917 170.609 58.2188C170.214 58.6406 169.969 59.2344 169.875 60H174.109V59.8906C174.068 59.1562 173.87 58.5885 173.516 58.1875C173.161 57.7812 172.682 57.5781 172.078 57.5781ZM182.156 62.7578C182.156 62.3672 182.008 62.0651 181.711 61.8516C181.419 61.6328 180.906 61.4453 180.172 61.2891C179.443 61.1328 178.862 60.9453 178.43 60.7266C178.003 60.5078 177.685 60.2474 177.477 59.9453C177.273 59.6432 177.172 59.2839 177.172 58.8672C177.172 58.1745 177.464 57.5885 178.047 57.1094C178.635 56.6302 179.385 56.3906 180.297 56.3906C181.255 56.3906 182.031 56.638 182.625 57.1328C183.224 57.6276 183.523 58.2604 183.523 59.0312H182.07C182.07 58.6354 181.901 58.2943 181.562 58.0078C181.229 57.7214 180.807 57.5781 180.297 57.5781C179.771 57.5781 179.359 57.6927 179.062 57.9219C178.766 58.151 178.617 58.4505 178.617 58.8203C178.617 59.1693 178.755 59.4323 179.031 59.6094C179.307 59.7865 179.805 59.9557 180.523 60.1172C181.247 60.2786 181.833 60.4714 182.281 60.6953C182.729 60.9193 183.06 61.1901 183.273 61.5078C183.492 61.8203 183.602 62.2031 183.602 62.6562C183.602 63.4115 183.299 64.0182 182.695 64.4766C182.091 64.9297 181.307 65.1562 180.344 65.1562C179.667 65.1562 179.068 65.0365 178.547 64.7969C178.026 64.5573 177.617 64.224 177.32 63.7969C177.029 63.3646 176.883 62.8984 176.883 62.3984H178.328C178.354 62.8828 178.547 63.2682 178.906 63.5547C179.271 63.8359 179.75 63.9766 180.344 63.9766C180.891 63.9766 181.328 63.8672 181.656 63.6484C181.99 63.4245 182.156 63.1276 182.156 62.7578ZM190.406 62.7578C190.406 62.3672 190.258 62.0651 189.961 61.8516C189.669 61.6328 189.156 61.4453 188.422 61.2891C187.693 61.1328 187.112 60.9453 186.68 60.7266C186.253 60.5078 185.935 60.2474 185.727 59.9453C185.523 59.6432 185.422 59.2839 185.422 58.8672C185.422 58.1745 185.714 57.5885 186.297 57.1094C186.885 56.6302 187.635 56.3906 188.547 56.3906C189.505 56.3906 190.281 56.638 190.875 57.1328C191.474 57.6276 191.773 58.2604 191.773 59.0312H190.32C190.32 58.6354 190.151 58.2943 189.812 58.0078C189.479 57.7214 189.057 57.5781 188.547 57.5781C188.021 57.5781 187.609 57.6927 187.312 57.9219C187.016 58.151 186.867 58.4505 186.867 58.8203C186.867 59.1693 187.005 59.4323 187.281 59.6094C187.557 59.7865 188.055 59.9557 188.773 60.1172C189.497 60.2786 190.083 60.4714 190.531 60.6953C190.979 60.9193 191.31 61.1901 191.523 61.5078C191.742 61.8203 191.852 62.2031 191.852 62.6562C191.852 63.4115 191.549 64.0182 190.945 64.4766C190.341 64.9297 189.557 65.1562 188.594 65.1562C187.917 65.1562 187.318 65.0365 186.797 64.7969C186.276 64.5573 185.867 64.224 185.57 63.7969C185.279 63.3646 185.133 62.8984 185.133 62.3984H186.578C186.604 62.8828 186.797 63.2682 187.156 63.5547C187.521 63.8359 188 63.9766 188.594 63.9766C189.141 63.9766 189.578 63.8672 189.906 63.6484C190.24 63.4245 190.406 63.1276 190.406 62.7578ZM198.953 65C198.87 64.8333 198.802 64.5365 198.75 64.1094C198.078 64.8073 197.276 65.1562 196.344 65.1562C195.51 65.1562 194.826 64.9219 194.289 64.4531C193.758 63.9792 193.492 63.3802 193.492 62.6562C193.492 61.776 193.826 61.0938 194.492 60.6094C195.164 60.1198 196.107 59.875 197.32 59.875H198.727V59.2109C198.727 58.7057 198.576 58.3047 198.273 58.0078C197.971 57.7057 197.526 57.5547 196.938 57.5547C196.422 57.5547 195.99 57.6849 195.641 57.9453C195.292 58.2057 195.117 58.5208 195.117 58.8906H193.664C193.664 58.4688 193.812 58.0625 194.109 57.6719C194.411 57.276 194.818 56.9635 195.328 56.7344C195.844 56.5052 196.409 56.3906 197.023 56.3906C197.997 56.3906 198.76 56.6354 199.312 57.125C199.865 57.6094 200.151 58.2786 200.172 59.1328V63.0234C200.172 63.7995 200.271 64.4167 200.469 64.875V65H198.953ZM196.555 63.8984C197.008 63.8984 197.438 63.7812 197.844 63.5469C198.25 63.3125 198.544 63.0078 198.727 62.6328V60.8984H197.594C195.823 60.8984 194.938 61.4167 194.938 62.4531C194.938 62.9062 195.089 63.2604 195.391 63.5156C195.693 63.7708 196.081 63.8984 196.555 63.8984ZM202.094 60.7031C202.094 59.3854 202.398 58.3385 203.008 57.5625C203.617 56.7812 204.424 56.3906 205.43 56.3906C206.461 56.3906 207.266 56.7552 207.844 57.4844L207.914 56.5469H209.234V64.7969C209.234 65.8906 208.909 66.7526 208.258 67.3828C207.612 68.013 206.742 68.3281 205.648 68.3281C205.039 68.3281 204.443 68.1979 203.859 67.9375C203.276 67.6771 202.831 67.3203 202.523 66.8672L203.273 66C203.893 66.7656 204.651 67.1484 205.547 67.1484C206.25 67.1484 206.797 66.9505 207.188 66.5547C207.583 66.1589 207.781 65.6016 207.781 64.8828V64.1562C207.203 64.8229 206.414 65.1562 205.414 65.1562C204.424 65.1562 203.622 64.7578 203.008 63.9609C202.398 63.1641 202.094 62.0781 202.094 60.7031ZM203.547 60.8672C203.547 61.8203 203.742 62.5703 204.133 63.1172C204.523 63.6589 205.07 63.9297 205.773 63.9297C206.685 63.9297 207.354 63.5156 207.781 62.6875V58.8281C207.339 58.0208 206.674 57.6172 205.789 57.6172C205.086 57.6172 204.536 57.8906 204.141 58.4375C203.745 58.9844 203.547 59.7943 203.547 60.8672ZM214.93 65.1562C213.784 65.1562 212.852 64.7812 212.133 64.0312C211.414 63.276 211.055 62.2682 211.055 61.0078V60.7422C211.055 59.9036 211.214 59.1562 211.531 58.5C211.854 57.8385 212.302 57.3229 212.875 56.9531C213.453 56.5781 214.078 56.3906 214.75 56.3906C215.849 56.3906 216.703 56.7526 217.312 57.4766C217.922 58.2005 218.227 59.237 218.227 60.5859V61.1875H212.5C212.521 62.0208 212.763 62.6953 213.227 63.2109C213.695 63.7214 214.289 63.9766 215.008 63.9766C215.518 63.9766 215.951 63.8724 216.305 63.6641C216.659 63.4557 216.969 63.1797 217.234 62.8359L218.117 63.5234C217.409 64.612 216.346 65.1562 214.93 65.1562ZM214.75 57.5781C214.167 57.5781 213.677 57.7917 213.281 58.2188C212.885 58.6406 212.641 59.2344 212.547 60H216.781V59.8906C216.74 59.1562 216.542 58.5885 216.188 58.1875C215.833 57.7812 215.354 57.5781 214.75 57.5781ZM228.797 62.7578C228.797 62.3672 228.648 62.0651 228.352 61.8516C228.06 61.6328 227.547 61.4453 226.812 61.2891C226.083 61.1328 225.503 60.9453 225.07 60.7266C224.643 60.5078 224.326 60.2474 224.117 59.9453C223.914 59.6432 223.812 59.2839 223.812 58.8672C223.812 58.1745 224.104 57.5885 224.688 57.1094C225.276 56.6302 226.026 56.3906 226.938 56.3906C227.896 56.3906 228.672 56.638 229.266 57.1328C229.865 57.6276 230.164 58.2604 230.164 59.0312H228.711C228.711 58.6354 228.542 58.2943 228.203 58.0078C227.87 57.7214 227.448 57.5781 226.938 57.5781C226.411 57.5781 226 57.6927 225.703 57.9219C225.406 58.151 225.258 58.4505 225.258 58.8203C225.258 59.1693 225.396 59.4323 225.672 59.6094C225.948 59.7865 226.445 59.9557 227.164 60.1172C227.888 60.2786 228.474 60.4714 228.922 60.6953C229.37 60.9193 229.701 61.1901 229.914 61.5078C230.133 61.8203 230.242 62.2031 230.242 62.6562C230.242 63.4115 229.94 64.0182 229.336 64.4766C228.732 64.9297 227.948 65.1562 226.984 65.1562C226.307 65.1562 225.708 65.0365 225.188 64.7969C224.667 64.5573 224.258 64.224 223.961 63.7969C223.669 63.3646 223.523 62.8984 223.523 62.3984H224.969C224.995 62.8828 225.188 63.2682 225.547 63.5547C225.911 63.8359 226.391 63.9766 226.984 63.9766C227.531 63.9766 227.969 63.8672 228.297 63.6484C228.63 63.4245 228.797 63.1276 228.797 62.7578ZM235.633 65.1562C234.487 65.1562 233.555 64.7812 232.836 64.0312C232.117 63.276 231.758 62.2682 231.758 61.0078V60.7422C231.758 59.9036 231.917 59.1562 232.234 58.5C232.557 57.8385 233.005 57.3229 233.578 56.9531C234.156 56.5781 234.781 56.3906 235.453 56.3906C236.552 56.3906 237.406 56.7526 238.016 57.4766C238.625 58.2005 238.93 59.237 238.93 60.5859V61.1875H233.203C233.224 62.0208 233.466 62.6953 233.93 63.2109C234.398 63.7214 234.992 63.9766 235.711 63.9766C236.221 63.9766 236.654 63.8724 237.008 63.6641C237.362 63.4557 237.672 63.1797 237.938 62.8359L238.82 63.5234C238.112 64.612 237.049 65.1562 235.633 65.1562ZM235.453 57.5781C234.87 57.5781 234.38 57.7917 233.984 58.2188C233.589 58.6406 233.344 59.2344 233.25 60H237.484V59.8906C237.443 59.1562 237.245 58.5885 236.891 58.1875C236.536 57.7812 236.057 57.5781 235.453 57.5781ZM241.977 56.5469L242.023 57.6094C242.669 56.7969 243.513 56.3906 244.555 56.3906C246.341 56.3906 247.242 57.3984 247.258 59.4141V65H245.812V59.4062C245.807 58.7969 245.667 58.3464 245.391 58.0547C245.12 57.763 244.695 57.6172 244.117 57.6172C243.648 57.6172 243.237 57.7422 242.883 57.9922C242.529 58.2422 242.253 58.5703 242.055 58.9766V65H240.609V56.5469H241.977ZM251.398 54.5V56.5469H252.977V57.6641H251.398V62.9062C251.398 63.2448 251.469 63.5 251.609 63.6719C251.75 63.8385 251.99 63.9219 252.328 63.9219C252.495 63.9219 252.724 63.8906 253.016 63.8281V65C252.635 65.1042 252.266 65.1562 251.906 65.1562C251.26 65.1562 250.773 64.9609 250.445 64.5703C250.117 64.1797 249.953 63.625 249.953 62.9062V57.6641H248.414V56.5469H249.953V54.5H251.398ZM258.672 64.2422C258.672 63.9922 258.745 63.7839 258.891 63.6172C259.042 63.4505 259.266 63.3672 259.562 63.3672C259.859 63.3672 260.083 63.4505 260.234 63.6172C260.391 63.7839 260.469 63.9922 260.469 64.2422C260.469 64.4818 260.391 64.6823 260.234 64.8438C260.083 65.0052 259.859 65.0859 259.562 65.0859C259.266 65.0859 259.042 65.0052 258.891 64.8438C258.745 64.6823 258.672 64.4818 258.672 64.2422ZM262.891 64.2422C262.891 63.9922 262.964 63.7839 263.109 63.6172C263.26 63.4505 263.484 63.3672 263.781 63.3672C264.078 63.3672 264.302 63.4505 264.453 63.6172C264.609 63.7839 264.688 63.9922 264.688 64.2422C264.688 64.4818 264.609 64.6823 264.453 64.8438C264.302 65.0052 264.078 65.0859 263.781 65.0859C263.484 65.0859 263.26 65.0052 263.109 64.8438C262.964 64.6823 262.891 64.4818 262.891 64.2422ZM267.109 64.2422C267.109 63.9922 267.182 63.7839 267.328 63.6172C267.479 63.4505 267.703 63.3672 268 63.3672C268.297 63.3672 268.521 63.4505 268.672 63.6172C268.828 63.7839 268.906 63.9922 268.906 64.2422C268.906 64.4818 268.828 64.6823 268.672 64.8438C268.521 65.0052 268.297 65.0859 268 65.0859C267.703 65.0859 267.479 65.0052 267.328 64.8438C267.182 64.6823 267.109 64.4818 267.109 64.2422Z" fill="#8A8A8A"/>
<path d="M296.695 64H295.242V54.3672L292.328 55.4375V54.125L296.469 52.5703H296.695V64ZM308.383 64H300.93V62.9609L304.867 58.5859C305.451 57.9245 305.852 57.388 306.07 56.9766C306.294 56.5599 306.406 56.1302 306.406 55.6875C306.406 55.0938 306.227 54.6068 305.867 54.2266C305.508 53.8464 305.029 53.6562 304.43 53.6562C303.711 53.6562 303.151 53.862 302.75 54.2734C302.354 54.6797 302.156 55.2474 302.156 55.9766H300.711C300.711 54.9297 301.047 54.0833 301.719 53.4375C302.396 52.7917 303.299 52.4688 304.43 52.4688C305.487 52.4688 306.323 52.7474 306.938 53.3047C307.552 53.8568 307.859 54.5938 307.859 55.5156C307.859 56.6354 307.146 57.9688 305.719 59.5156L302.672 62.8203H308.383V64ZM310.016 63.2422C310.016 62.9922 310.089 62.7839 310.234 62.6172C310.385 62.4505 310.609 62.3672 310.906 62.3672C311.203 62.3672 311.427 62.4505 311.578 62.6172C311.734 62.7839 311.812 62.9922 311.812 63.2422C311.812 63.4818 311.734 63.6823 311.578 63.8438C311.427 64.0052 311.203 64.0859 310.906 64.0859C310.609 64.0859 310.385 64.0052 310.234 63.8438C310.089 63.6823 310.016 63.4818 310.016 63.2422ZM310.023 56.3438C310.023 56.0938 310.096 55.8854 310.242 55.7188C310.393 55.5521 310.617 55.4688 310.914 55.4688C311.211 55.4688 311.435 55.5521 311.586 55.7188C311.742 55.8854 311.82 56.0938 311.82 56.3438C311.82 56.5833 311.742 56.7839 311.586 56.9453C311.435 57.1068 311.211 57.1875 310.914 57.1875C310.617 57.1875 310.393 57.1068 310.242 56.9453C310.096 56.7839 310.023 56.5833 310.023 56.3438ZM320.922 59.1484C320.922 60.8411 320.633 62.099 320.055 62.9219C319.477 63.7448 318.573 64.1562 317.344 64.1562C316.13 64.1562 315.232 63.7552 314.648 62.9531C314.065 62.1458 313.763 60.9427 313.742 59.3438V57.4141C313.742 55.7422 314.031 54.5 314.609 53.6875C315.188 52.875 316.094 52.4688 317.328 52.4688C318.552 52.4688 319.453 52.862 320.031 53.6484C320.609 54.4297 320.906 55.638 320.922 57.2734V59.1484ZM319.477 57.1719C319.477 55.9479 319.305 55.0573 318.961 54.5C318.617 53.9375 318.073 53.6562 317.328 53.6562C316.589 53.6562 316.049 53.9349 315.711 54.4922C315.372 55.0495 315.198 55.9062 315.188 57.0625V59.375C315.188 60.6042 315.365 61.513 315.719 62.1016C316.078 62.6849 316.62 62.9766 317.344 62.9766C318.057 62.9766 318.586 62.7005 318.93 62.1484C319.279 61.5964 319.461 60.7266 319.477 59.5391V57.1719ZM328.875 60.1797H330.453V61.3594H328.875V64H327.422V61.3594H322.242V60.5078L327.336 52.625H328.875V60.1797ZM323.883 60.1797H327.422V54.6016L327.25 54.9141L323.883 60.1797ZM331.859 63.2422C331.859 62.9922 331.932 62.7839 332.078 62.6172C332.229 62.4505 332.453 62.3672 332.75 62.3672C333.047 62.3672 333.271 62.4505 333.422 62.6172C333.578 62.7839 333.656 62.9922 333.656 63.2422C333.656 63.4818 333.578 63.6823 333.422 63.8438C333.271 64.0052 333.047 64.0859 332.75 64.0859C332.453 64.0859 332.229 64.0052 332.078 63.8438C331.932 63.6823 331.859 63.4818 331.859 63.2422ZM331.867 56.3438C331.867 56.0938 331.94 55.8854 332.086 55.7188C332.237 55.5521 332.461 55.4688 332.758 55.4688C333.055 55.4688 333.279 55.5521 333.43 55.7188C333.586 55.8854 333.664 56.0938 333.664 56.3438C333.664 56.5833 333.586 56.7839 333.43 56.9453C333.279 57.1068 333.055 57.1875 332.758 57.1875C332.461 57.1875 332.237 57.1068 332.086 56.9453C331.94 56.7839 331.867 56.5833 331.867 56.3438ZM337.734 57.6094H338.82C339.503 57.599 340.039 57.4193 340.43 57.0703C340.82 56.7214 341.016 56.25 341.016 55.6562C341.016 54.3229 340.352 53.6562 339.023 53.6562C338.398 53.6562 337.898 53.8359 337.523 54.1953C337.154 54.5495 336.969 55.0208 336.969 55.6094H335.523C335.523 54.7083 335.852 53.9609 336.508 53.3672C337.169 52.7682 338.008 52.4688 339.023 52.4688C340.096 52.4688 340.938 52.7526 341.547 53.3203C342.156 53.888 342.461 54.6771 342.461 55.6875C342.461 56.1823 342.299 56.6615 341.977 57.125C341.659 57.5885 341.224 57.9349 340.672 58.1641C341.297 58.362 341.779 58.6901 342.117 59.1484C342.461 59.6068 342.633 60.1667 342.633 60.8281C342.633 61.849 342.299 62.6589 341.633 63.2578C340.966 63.8568 340.099 64.1562 339.031 64.1562C337.964 64.1562 337.094 63.8672 336.422 63.2891C335.755 62.7109 335.422 61.9479 335.422 61H336.875C336.875 61.599 337.07 62.0781 337.461 62.4375C337.852 62.7969 338.375 62.9766 339.031 62.9766C339.729 62.9766 340.263 62.7943 340.633 62.4297C341.003 62.0651 341.188 61.5417 341.188 60.8594C341.188 60.1979 340.984 59.6901 340.578 59.3359C340.172 58.9818 339.586 58.7995 338.82 58.7891H337.734V57.6094ZM350.289 52.6172V53.8438H350.023C348.898 53.8646 348.003 54.1979 347.336 54.8438C346.669 55.4896 346.284 56.3984 346.18 57.5703C346.779 56.8828 347.596 56.5391 348.633 56.5391C349.622 56.5391 350.411 56.888 351 57.5859C351.594 58.2839 351.891 59.1849 351.891 60.2891C351.891 61.4609 351.57 62.3984 350.93 63.1016C350.294 63.8047 349.44 64.1562 348.367 64.1562C347.279 64.1562 346.396 63.7396 345.719 62.9062C345.042 62.0677 344.703 60.9896 344.703 59.6719V59.1172C344.703 57.0234 345.148 55.4245 346.039 54.3203C346.935 53.2109 348.266 52.6432 350.031 52.6172H350.289ZM348.391 57.7422C347.896 57.7422 347.44 57.8906 347.023 58.1875C346.607 58.4844 346.318 58.8568 346.156 59.3047V59.8359C346.156 60.7734 346.367 61.5286 346.789 62.1016C347.211 62.6745 347.737 62.9609 348.367 62.9609C349.018 62.9609 349.529 62.7214 349.898 62.2422C350.273 61.763 350.461 61.1354 350.461 60.3594C350.461 59.5781 350.271 58.9479 349.891 58.4688C349.516 57.9844 349.016 57.7422 348.391 57.7422ZM362.938 64C362.854 63.8333 362.786 63.5365 362.734 63.1094C362.062 63.8073 361.26 64.1562 360.328 64.1562C359.495 64.1562 358.81 63.9219 358.273 63.4531C357.742 62.9792 357.477 62.3802 357.477 61.6562C357.477 60.776 357.81 60.0938 358.477 59.6094C359.148 59.1198 360.091 58.875 361.305 58.875H362.711V58.2109C362.711 57.7057 362.56 57.3047 362.258 57.0078C361.956 56.7057 361.51 56.5547 360.922 56.5547C360.406 56.5547 359.974 56.6849 359.625 56.9453C359.276 57.2057 359.102 57.5208 359.102 57.8906H357.648C357.648 57.4688 357.797 57.0625 358.094 56.6719C358.396 56.276 358.802 55.9635 359.312 55.7344C359.828 55.5052 360.393 55.3906 361.008 55.3906C361.982 55.3906 362.745 55.6354 363.297 56.125C363.849 56.6094 364.135 57.2786 364.156 58.1328V62.0234C364.156 62.7995 364.255 63.4167 364.453 63.875V64H362.938ZM360.539 62.8984C360.992 62.8984 361.422 62.7812 361.828 62.5469C362.234 62.3125 362.529 62.0078 362.711 61.6328V59.8984H361.578C359.807 59.8984 358.922 60.4167 358.922 61.4531C358.922 61.9062 359.073 62.2604 359.375 62.5156C359.677 62.7708 360.065 62.8984 360.539 62.8984ZM367.781 55.5469L367.82 56.4844C368.44 55.7552 369.276 55.3906 370.328 55.3906C371.51 55.3906 372.315 55.8438 372.742 56.75C373.023 56.3438 373.388 56.0156 373.836 55.7656C374.289 55.5156 374.823 55.3906 375.438 55.3906C377.292 55.3906 378.234 56.3724 378.266 58.3359V64H376.82V58.4219C376.82 57.8177 376.682 57.3672 376.406 57.0703C376.13 56.7682 375.667 56.6172 375.016 56.6172C374.479 56.6172 374.034 56.7786 373.68 57.1016C373.326 57.4193 373.12 57.849 373.062 58.3906V64H371.609V58.4609C371.609 57.2318 371.008 56.6172 369.805 56.6172C368.857 56.6172 368.208 57.0208 367.859 57.8281V64H366.414V55.5469H367.781Z" fill="#8A8A8A"/>
</svg>
